<?xml version="1.0" encoding="utf-8"?>
<!-- Generator: Adobe Illustrator 19.1.0, SVG Export Plug-In . SVG Version: 6.00 Build 0)  -->
<svg version="1.1" id="Layer_1" xmlns="http://www.w3.org/2000/svg" xmlns:xlink="http://www.w3.org/1999/xlink" x="0px" y="0px"
         width="51px" height="47px" viewBox="0 0 51 47" style="enable-background:new 0 0 500 500;" xml:space="preserve">
<style type="text/css">
        .st0{fill:#6D9900;}
        .st1{fill:#FEFEFE;}
</style>
<g>
        <path class="st0" d="M249.6,497.1C111.2,496.5,7,386.9,3,260.1C-1.8,109.7,115.4,7,239.7,3c150.1-4.8,252.2,112.3,257.2,235.1
                C503.1,387.7,382.9,498.1,249.6,497.1z"/>
        <path class="st1" d="M133.1,250c16.6,9.8,21.8,24.7,23.8,41.6c1.5,12.7,0.8,25.4,1.4,38.1c0.9,18.7,5.9,19.2,19.3,19.2
                c5.8,0,8,1.7,7.1,7.4c-0.2,0.9,0,1.8,0,2.8c0,16.4,0,16.4-16.5,15.7c-23.2-1-35.7-14.3-37.9-37.5c-1.6-17.3,0.7-34.7-2.5-51.8
                c-2.6-14-8.2-19.5-22.4-20.3c-3.6-0.2-5-1.3-4.9-4.8c0.2-3.5,0-6.9,0-10.4c0.1-4.4-1-9.3,0.6-13c1.9-4.3,7.5-1.3,11.4-2.5
                c7-2.1,11.5-6.7,13.6-13.5c1.8-5.7,2.9-11.6,3-17.6c0.3-15.7-1-31.5,2.4-46.9c4.5-20.8,14.2-29.2,35.5-31.1
                c17.6-1.6,17.6-1.6,17.6,15.9c0,9.6,0,9.7-9.2,9.9c-14.1,0.3-16,4.6-17.1,18c-1,12.6,0,25.4-1.4,38.1
                C155.1,224.6,150.1,239.9,133.1,250z"/>
        <path class="st1" d="M366.8,250.1c-18.6-11.1-22.8-28.6-24.1-48c-0.7-11.3-0.6-22.6-1.2-33.9c-0.6-13-4.2-16.6-17.2-17.1
                c-9.3-0.3-9.3-0.3-9.3-9.8c0-0.5,0-0.9,0-1.4c0-15.1,0-15.1,15.5-14.7c23.9,0.7,36.5,13.3,38.8,37c1.3,13.4,0.7,26.8,1.2,40.1
                c0.2,6.5,1.4,12.8,3.4,18.9c3.2,9.5,8.3,13.4,18.4,13.5c5.4,0,7.5,1.5,7,7.1c-0.5,6-0.3,12-0.1,18c0.1,3.8-1.2,5.1-5.1,5.3
                c-13.8,0.6-19.9,6.7-22.3,20.6c-2,11.3-1.3,22.6-1.4,33.8c0,8.3-0.5,16.6-2.3,24.7c-4.6,20.2-14.6,28.7-35.2,30.4
                c-18,1.5-17.5,1.4-18.2-16.2c-0.3-7.5,1.6-9.7,9.3-9.6c13.5,0.1,16.8-3.9,17.4-17.5c0.6-15,0.2-30,2.4-44.9
                C346.3,271.2,352.4,258.5,366.8,250.1z"/>
        <path class="st1" d="M310.4,266.6c-9.4,0.1-17.4-7.6-17.4-16.6c0-8.7,7.9-16.6,16.8-16.7c9.4-0.1,17.4,7.6,17.4,16.7
                C327.2,258.8,319.4,266.5,310.4,266.6z"/>
        <path class="st1" d="M266.5,249.9c0,10-6.8,16.8-16.8,16.8c-9.4,0-16.5-7.1-16.5-16.4c0-9.5,7.4-16.9,16.9-16.9
                C259.5,233.4,266.5,240.4,266.5,249.9z"/>
        <path class="st1" d="M190,266.6c-9.8,0-17-7.2-16.9-16.8c0.1-9.4,7.3-16.4,16.6-16.5c9.3,0,17.2,7.8,17.1,17
                C206.7,259.2,199.1,266.6,190,266.6z"/>
</g>
</svg>
