<svg height="60" viewBox="0 0 120 60" width="120" xmlns="http://www.w3.org/2000/svg" xmlns:xlink="http://www.w3.org/1999/xlink"><mask id="a" height="12.7" maskUnits="userSpaceOnUse" width="11.5" x="0" y=".1"><path d="m11.5 12.8v-12.7h-11.5v12.7z" fill="#fff"/></mask><mask id="b" height="12.9" maskUnits="userSpaceOnUse" width="10.6" x=".1" y=".2"><path d="m10.7.2h-10.6v12.8h10.6z" fill="#fff"/></mask><mask id="c" height="12.9" maskUnits="userSpaceOnUse" width="12.7" x="0" y=".2"><path d="m12.8.2h-12.8v12.8h12.8z" fill="#fff"/></mask><mask id="d" height="69" maskUnits="userSpaceOnUse" width="64.6" x=".1" y="0"><path d="m.1 69h64.7v-69h-64.7z" fill="#fff"/></mask><g fill="#5c2d90"><g transform="matrix(.50478061 0 0 .50478061 -1.243337 12.486607)"><path d="m60.3 36.4 1.7 21.7-30.1 5.4-2.6-21.7 4.3-.6c.7.3 1.2.4 2 .6 1.3.3 2.8.7 5-.5.5-.3 1.6-1.2 2-1.8zm-46.5 25.8c-.5-.8-1.4-1.7-2.8-2.8-2-1.6-1.3-4.4-.1-6.1 1.5-2.9 9.4-6.7 9-11.4-.2-1.7-.4-3.9-2-5.5-.1.6 0 1.2 0 1.2s-.7-.8-1-2c-.3-.4-.6-.6-.9-1.2-.2.7-.2 1.4-.2 1.4s-.5-1.3-.6-2.3c-.3.5-.4 1.4-.4 1.4s-.7-2-.5-3.1c-.3-.9-1.3-2.8-1-7 1.7 1.2 5.5.9 7-1.3.5-.7.8-2.7-.2-6.6-.7-2.5-2.4-6.2-3.1-7.6l-.1.1c.4 1.1 1.1 3.5 1.4 4.7.8 3.5 1.1 4.7.7 6.3-.3 1.4-1.1 2.3-3.2 3.3-2 1-4.8-1.5-4.9-1.6-2-1.6-3.5-4.2-3.7-5.4-.2-1.4.8-2.2 1.3-3.3-.7.2-1.5.6-1.5.6s.9-1 2.1-1.8c.5-.3.8-.5 1.3-.9-.7 0-1.3 0-1.3 0s1.2-.7 2.5-1.1c-.9 0-1.8 0-1.8 0s2.7-1.2 4.8-2.1c1.5-.6 2.9-.4 3.7.7 1.1 1.5 2.2 2.3 4.5 2.9 1.4-.6 1.9-1 3.7-1.5 1.6-1.8 2.9-2 2.9-2s-.9.8-1 1.7c.9-.7 1.9-1.3 1.9-1.3s-.4.5-.7 1.2l.1.1c1.1-.6 2.3-1.1 2.3-1.1s-.4.4-.8 1c.8 0 2.4 0 3 .1 3.7.1 4.5-3.9 5.9-4.5 1.8-.6 2.6-1 5.6 2 2.6 2.6 4.6 7.1 3.6 8.1-.8.8-2.5-.3-4.4-2.6-1-1.2-1.7-2.7-2.1-4.5-.2-1.5-1.3-2.4-1.3-2.4s.7 1.5.7 2.8c0 .7.1 3.3 1.2 4.8-.1.2-.2 1.1-.3 1.2-1.3-1.6-4.2-2.7-4.6-3.1 1.6 1.3 5.2 4.2 6.6 7 1.3 2.7.5 5.1 1.2 5.7.2.2 2.8 3.4 3.3 5.1.9 2.9.1 5.9-1.1 7.7l-3.2.5c-.5-.1-.8-.2-1.2-.4.2-.4.7-1.4.7-1.6l-.2-.3c-1 1.4-2.7 2.8-4.1 3.6-1.8 1-3.9.9-5.3.4-3.9-1.2-7.6-3.8-8.4-4.5 0 0 0 .5.1.7 1 1.1 3.2 3.1 5.4 4.5l-4.6.5 2.2 17c-1 .1-1.1.2-2.2.4-.9-3.3-2.7-5.4-4.7-6.7-1.7-1.1-4.1-1.4-6.4-.9l-.1.2c1.6-.2 3.5.1 5.4 1.3s3.4 4.3 4 6.1c.7 2.4 1.2 4.9-.7 7.6-1.4 1.9-5.4 3-8.6.7.9 1.4 2 2.5 3.6 2.7 2.3.3 4.5-.1 6.1-1.6 1.3-1.3 2-4.1 1.8-7.1l2.1-.3.7 5.3 34.1-4.1-3-27.2-1.7.3-3.4-34.3-56.8 6.6 7 56.6z" mask="url(#d)" transform="translate(10.375555 .148652)"/><path d="m51.2 32.6c1.5 1.1 2.8 1.8 4.1 1.7.8-.1 1.6-1.4 2.1-2.6.4-.8.4-1.7-.2-2-.3-.1-1.5-.1-2.4 0-1.7.2-3.4.8-3.8 1.1-.6.4-.3 1.4.2 1.8"/><path d="m51.6 20.9v.1l.1.2c.4.8.8 1.6 1.6 2 .2 0 .4-.1.6-.1.7 0 1.1.1 1.4.2 0-.1 0-.3 0-.6-.1-1 .2-2.8-1.8-3.8-.8-.4-1.8-.2-2.2.2h.2c.5.2.2.4.1.6-.1.4-.2.5 0 1.2"/><path d="m42.6 21.1c.5-.4-2.3-1-4.5.4-1.6 1.1-1.6 3.4-.1 4.7.2.1.3.2.4.3.4-.2 1-.4 1.5-.6 1-.3 1.8-.5 2.5-.6.3-.4.7-1 .6-2.1-.1-1.5-1.3-1.2-.4-2.1"/><path d="m64.6 49.2-5.7-3.8-4.8 8-5.6-1.7-4.9 7.5.2 2.4 26.8-4.9-1.6-16.7z"/></g><g transform="matrix(.88831954 0 0 .88831954 40.030829 -17.07752)"><path d="m6.4 11c-2.6 0-4-1.5-4-4.4s1.3-4.4 4-4.4c2.6 0 3.9 1.5 3.9 4.4s-1.3 4.4-3.9 4.4m0-10.8c-4.2 0-6.4 2.1-6.4 6.4.2 4.3 2.4 6.4 6.4 6.4 4.2 0 6.3-2.1 6.3-6.4.1-4.3-2-6.4-6.3-6.4" mask="url(#c)" transform="translate(60.382328 46.346155)"/><path d="m7.1 2.2c1.3 0 2.5.2 3.6.7v-2.1c-1.1-.4-2.3-.6-3.7-.6-4.6 0-6.9 2.1-6.9 6.3 0 4.4 2.3 6.6 6.8 6.6 1.6 0 2.8-.2 3.9-.7v-6.7h-3.9l-.8 2.1h2.3v3c-.5.1-1 .2-1.5.2-2.9 0-4.4-1.5-4.4-4.6 0-2.8 1.6-4.2 4.6-4.2" mask="url(#b)" transform="translate(74.669977 46.346155)"/><path d="m52.5 57.2h-2.8v-8.6h2.8c2.6 0 4 1.3 4 4-.1 3.1-1.4 4.6-4 4.6m.3-10.6h-5.5v12.7h5.5c4 0 6-2.2 6-6.7 0-4-2-6-6-6"/><path d="m5.2 10.7h-2.8v-8.6h2.8c2.7 0 4 1.3 4 4 0 3.1-1.4 4.6-4 4.6m.3-10.6h-5.5v12.7h5.5c4 0 6-2.2 6-6.7 0-4-2-6-6-6" mask="url(#a)" transform="translate(0 46.51527)"/><g transform="translate(0 -25)"><path d="m41.6 80.8 1.6 3.5h2.5l-5.5-12.7h-2.6l-5.4 12.7h2.4l4.3-10.3 2 4.8h-2.6l-.8 2z"/><path d="m20.9 80.8 1.6 3.5h2.6l-5.6-12.7h-2.5l-5.4 12.7h2.4l4.2-10.3 2.1 4.8h-2.7l-.8 2z"/><path d="m23.7 73.6h3.7v10.7h2.4v-10.7h3.6v-2h-9.7z"/></g></g></g></svg>