<svg height="60" preserveAspectRatio="xMinYMin meet" viewBox="0 0 19.2 9.6" width="120" xmlns="http://www.w3.org/2000/svg"><g transform="matrix(.39906238 0 0 .39906238 -1.150335 4.894032)"><path d="m14.232812 5.3394245h-7.8295343c-.6697805 0-1.2126021-.5428216-1.2126021-1.2124819v-10.2890434c0-.6696603.5428616-1.2125219 1.212562-1.2125219h7.8295344c.669661 0 1.212683.5428616 1.212683 1.2125219v10.2890434c0 .6696603-.543022 1.2124819-1.212683 1.2124819z" fill="#6762a6"/><path d="m11.61717 3.5900123v-5.0491022s.328418-1.2082739-4.0453332.49429023c-.00802.0216007-.00802-4.66894673-.00802-4.66894673l1.4290895-.00882v3.0052958s4.0013707-1.5759659 4.0013707 1.1952094v5.0320701h-1.377072zm.814332-7.4137123h-1.515812c.545627-.6670954 1.039556-1.8100865 1.039556-1.8100865h1.56735s-.268345.7448819-1.091053 1.8100865zm-4.8417114 7.4049758v-2.87533121l1.4378259 1.43778581z" fill="#fff"/></g><path d="m7.2705355 6.1812362v-1.6507348c0-.1163866-.085345-.1665974-.1859142-.1665974-.2016247 0-.4534673.050217-.6820515.1509817v1.6663505h-.4649531v-3.0650058h.4649058v1.0111626c.2209901-.081259.4844133-.1509343.7479312-.1509343.4223306 0 .5812379.2595788.5812379.6158874v1.5888901zm1.3289322-.9997253c.01548.5540902.124022.6626387.464859.6626387.267409 0 .5696565-.089182.8022285-.1783201l.07746.3486672c-.248046.1124901-.550246.2209415-.9104935.2209415-.77508 0-.8952579-.4261264-.8952579-1.1043808 0-.371877.027193-.7090572.1162919-1.0190421.232476-.089135.542508-.135604.933751-.135604.6356785 0 .8293293.3526549.8293293.9687319v.2363677h-1.4181633zm.588833-.8176069c-.139306 0-.360249.00391-.542366.038586-.01927.093031-.04267.2209427-.05041.457359h.9687305c0-.3217077-.05814-.4959465-.3759585-.4959454zm1.7009513.1509817v1.6663505h-.465001v-1.8755219c.391385-.2130644.805978-.2789442 1.077328-.2983084v.3874916c-.189855.015468-.43021.038728-.61228.1199882zm1.84054 1.7205525c-.693726 0-1.007556-.3409298-1.007556-1.1198532 0-.8253443.414595-1.1391263 1.007556-1.1391263.693538 0 1.007462.3408836 1.007462 1.1197609 0 .8253904-.414689 1.1392186-1.007462 1.1392186zm0-1.8714868c-.356545 0-.554136.2052796-.554136.7516336 0 .5968062.166598.7285646.554136.7285646.356452 0 .554091-.2015773.554091-.74793 0-.5968063-.166598-.7323156-.554091-.7323156zm3.25078 1.8172848h-.546448c-.127772-.3409784-.30614-.6897403-.581239-.9919879h-.244153v.9919879h-.464953v-3.0650058h.464953v1.7590938h.217051c.236369-.2441525.418439-.546258.546353-.8447085h.523048c-.178178.36039-.406762.6781111-.662544.9377373.306141.3874915.546354.7982415.747884 1.2128832zm.871573.054196c-.422283 0-.581145-.259529-.581145-.6160758v-1.5887467h.461062v1.6468418c0 .1163747.08514.1666921.185914.1666921.201531 0 .47663-.050311.705309-.1511238v-1.6624101h.464999v1.8676897c-.550243.3023022-.972669.3371388-1.236139.3371388z" fill="#6762a6"/></svg>