<svg height="60" viewBox="0 0 120 59.999998" width="120" xmlns="http://www.w3.org/2000/svg"><g fill="#25c151" transform="matrix(.13515007 0 0 .13515007 7.278633 19.118392)"><path d="m173.38 51.7a24.47 24.47 0 0 0 -14.74-12.37 28.75 28.75 0 0 0 -8.36-1.33h-44.6v17.7h44.6a7.93 7.93 0 0 1 5.7 2.16 7.59 7.59 0 0 1 2.27 5.8v7.78h-34.25a25.45 25.45 0 0 0 -11.94 2.56 24.69 24.69 0 0 0 -8 6.42 25 25 0 0 0 -4.41 8.36 29 29 0 0 0 -1.36 8.39 25.52 25.52 0 0 0 2.57 11.93 24.54 24.54 0 0 0 6.42 8 25 25 0 0 0 8.32 4.41 28.75 28.75 0 0 0 8.36 1.36h26.28a25.45 25.45 0 0 0 11.95-2.57 24.69 24.69 0 0 0 8-6.42 25.11 25.11 0 0 0 4.41-8.32 28.66 28.66 0 0 0 1.4-8.41v-33.52a25.34 25.34 0 0 0 -2.62-11.93zm-15.13 45.3a8.21 8.21 0 0 1 -2.08 5.73 7.54 7.54 0 0 1 -5.89 2.3h-26.13a8.5 8.5 0 0 1 -5.7-2 7.1 7.1 0 0 1 -2.4-5.71 8.36 8.36 0 0 1 2.07-5.77 7.51 7.51 0 0 1 5.88-2.36h34.25z"/><path d="m325.64 89.58a25.53 25.53 0 0 0 12-2.59 24.62 24.62 0 0 0 12.44-14.82 28.82 28.82 0 0 0 1.37-8.39 25.59 25.59 0 0 0 -2.59-12 24.68 24.68 0 0 0 -6.46-8 25 25 0 0 0 -8.4-4.46 28.82 28.82 0 0 0 -8.36-1.32h-26.44a25.49 25.49 0 0 0 -12 2.59 24.74 24.74 0 0 0 -8 6.46 25.4 25.4 0 0 0 -4.44 8.37 29.41 29.41 0 0 0 -1.37 8.41v33.65a25.49 25.49 0 0 0 2.6 12 24.38 24.38 0 0 0 14.82 12.44 28.87 28.87 0 0 0 8.39 1.38h49.59v-17.89h-49.45a8.37 8.37 0 0 1 -5.8-2.09 7.38 7.38 0 0 1 -2.34-5.83v-7.9zm-34.45-25.66a8.43 8.43 0 0 1 2.1-5.82 7.5 7.5 0 0 1 5.91-2.34h26.45a8.21 8.21 0 0 1 5.66 2.09 7.36 7.36 0 0 1 2.34 5.78 8.4 8.4 0 0 1 -2.09 5.8 7.52 7.52 0 0 1 -5.91 2.34h-34.46z"/><path d="m479.83 123h-28.36c-10.07 0-15.95-4.09-19.1-7.53-6.3-6.85-6.34-15.7-6.23-18.06v-34c0-9.82 4-15.63 7.36-18.77 6.88-6.45 15.9-6.56 18.09-6.48h35.34v-30.63h18v90.27c0 9.24-3.79 14.9-7 18-6.93 6.8-16.23 7.2-18.1 7.2zm-35.72-24.67c0 .93.2 3.54 1.55 5s3.88 1.66 5.81 1.66h28.39c7.07-.1 7.07-5.41 7.07-7.16v-41.7h-36.13c-1 0-3.62.29-5 1.68-1.08 1-1.62 2.92-1.62 5.59z"/><path d="m28.56 153.5h-18v-90.5c0-9.25 3.8-14.92 7-18.05 7.05-6.95 16.61-7.14 18.24-7.13h28.32c10.08 0 16 4.1 19.13 7.54 6.31 6.86 6.35 15.73 6.24 18.09v34.07c0 9.83-4 15.65-7.37 18.8-6.89 6.46-15.91 6.57-18.11 6.49h-35.45zm36.18-48.67c.95 0 3.65-.27 5.12-1.69 1.08-1 1.63-2.94 1.63-5.62v-35c0-.94-.2-3.56-1.56-5s-3.9-1.67-5.84-1.67h-28.42c-7.11.1-7.11 5.44-7.11 7.19v41.79z"/><path d="m376.72 123h-18v-59.89c0-9.22 3.79-14.88 7-18 7.09-7 16.76-7.21 18.29-7.21h35v18h-35.11c-7.18.12-7.18 5.46-7.18 7.22z"/><path d="m539.51 123c-1.37 0-11.14-.27-18.27-7.33-3.15-3.13-6.91-8.78-6.91-17.92v-59.84h18v59.88c0 3.94 1.36 5.23 2.82 6a11.06 11.06 0 0 0 4.47 1.21h35.21v-67.09h18v85.09z"/><path d="m237.59 152.7h-42.75v-18h42.74c4.5 0 6.08-1.76 7-3.48a13.25 13.25 0 0 0 1.46-5.17v-3.44h-34c-2.27.08-11.8 0-19.08-6.81-3.54-3.31-7.75-9.43-7.75-19.81v-31.36c-.07-2.17.05-11.83 7-19.14 3.31-3.5 9.41-7.68 19.68-7.68h25.56c10.68 0 26.57 7.08 26.57 26.57v61.82c-.02 10.71-7.18 26.5-26.43 26.5zm-34.3-88.7v.33.13 31.54c0 3.15.69 5.4 2 6.67 2.12 2 6 2 6 2h.59 34.16v-40.29c0-4.78-1.93-6.38-3.81-7.33a13.28 13.28 0 0 0 -4.76-1.25h-25.52c-3.06 0-5.26.67-6.55 2-1.78 1.83-2.12 5.02-2.11 6.2z"/><path d="m743.19 152.93h-42.69v-18h42.69c4.48 0 6.05-1.74 7-3.44a13.08 13.08 0 0 0 1.44-5.13v-3.31h-34.07c-10.37 0-16.5-4.21-19.82-7.75-6.85-7.3-6.95-16.89-6.87-19.14v-58.16h18v58.9c0 1.18.31 4.33 2.06 6.15 1.29 1.33 3.52 2 6.64 2h34.06v-67.18h18v88.63c-.08 10.66-7.18 26.43-26.44 26.43z"/><path d="m650.7 123.08h-18v-67.13h-30.63v-18h30.63v-23.12h18v23.12h30.75v18h-30.75z"/></g></svg>