<svg height="60" viewBox="0 0 120 60.000001" width="120" xmlns="http://www.w3.org/2000/svg"><g transform="matrix(.52733262 0 0 .52733262 35.079192 12.660984)"><g fill="#03539a"><path d="m14.69 37.28a12.34 12.34 0 0 1 -.69 4.23 8.52 8.52 0 0 1 -1.79 3 7.29 7.29 0 0 1 -2.61 1.78 8.31 8.31 0 0 1 -3.1.58 12.44 12.44 0 0 1 -2.5-.24 13.73 13.73 0 0 1 -2.23-.63v7.1l-1.77.38v-24.59h1.28l.45 2.57a12.54 12.54 0 0 1 2.42-2.08 5.8 5.8 0 0 1 3.25-.87 7.49 7.49 0 0 1 2.8.53 6.41 6.41 0 0 1 2.32 1.6 7.76 7.76 0 0 1 1.59 2.74 11.7 11.7 0 0 1 .58 3.9zm-1.85.08a8.14 8.14 0 0 0 -1.55-5.36 4.92 4.92 0 0 0 -3.93-1.83 5.25 5.25 0 0 0 -2.94.83 13.31 13.31 0 0 0 -2.64 2.38v10.85a10.45 10.45 0 0 0 2.22.77 10.56 10.56 0 0 0 2.49.28 6.57 6.57 0 0 0 2.51-.43 5.15 5.15 0 0 0 2-1.47 7.34 7.34 0 0 0 1.34-2.49 11.34 11.34 0 0 0 .5-3.54z"/><path d="m30.36 46.64-.42-2.38a13.78 13.78 0 0 1 -3 2 7.56 7.56 0 0 1 -5.38.49 5 5 0 0 1 -1.7-.87 4 4 0 0 1 -1.15-1.47 4.9 4.9 0 0 1 -.42-2.1 5.57 5.57 0 0 1 .6-2.62 5.31 5.31 0 0 1 2-2 12.41 12.41 0 0 1 3.57-1.4 38 38 0 0 1 5.42-.85v-1.56a3.52 3.52 0 0 0 -1-2.8 4.24 4.24 0 0 0 -2.89-.91 11.73 11.73 0 0 0 -3.08.42 15.38 15.38 0 0 0 -3 1.17l-.23-1.66a21.78 21.78 0 0 1 3.02-1.1 12.28 12.28 0 0 1 3.3-.45 5.87 5.87 0 0 1 4.15 1.34 5.09 5.09 0 0 1 1.44 3.91v12.84zm-.49-9.74a37.31 37.31 0 0 0 -4.63.76 12.39 12.39 0 0 0 -3 1.08 4.06 4.06 0 0 0 -1.62 1.47 3.82 3.82 0 0 0 -.49 1.94 3 3 0 0 0 1.06 2.51 4.09 4.09 0 0 0 2.57.81 7.14 7.14 0 0 0 3.06-.77 12.92 12.92 0 0 0 3.06-2.06v-5.74z"/><path d="m52 37.28a12.34 12.34 0 0 1 -.66 4.23 8.52 8.52 0 0 1 -1.79 3 7.29 7.29 0 0 1 -2.61 1.78 8.31 8.31 0 0 1 -3.1.58 12.44 12.44 0 0 1 -2.51-.24 13.73 13.73 0 0 1 -2.33-.63v7.1l-1.77.38v-24.59h1.28l.49 2.57a12.54 12.54 0 0 1 2.42-2.08 5.8 5.8 0 0 1 3.25-.87 7.49 7.49 0 0 1 2.79.53 6.41 6.41 0 0 1 2.32 1.6 7.76 7.76 0 0 1 1.59 2.74 11.72 11.72 0 0 1 .63 3.9zm-1.85.08a8.14 8.14 0 0 0 -1.58-5.36 4.92 4.92 0 0 0 -3.93-1.83 5.25 5.25 0 0 0 -2.94.87 13.31 13.31 0 0 0 -2.7 2.35v10.84a10.45 10.45 0 0 0 2.23.81 10.56 10.56 0 0 0 2.49.28 6.57 6.57 0 0 0 2.49-.47 5.15 5.15 0 0 0 2-1.47 7.34 7.34 0 0 0 1.34-2.49 11.34 11.34 0 0 0 .56-3.54z"/><path d="m69.94 37.77h-12.54a11.58 11.58 0 0 0 .4 3.12 7.42 7.42 0 0 0 1.15 2.44 5.18 5.18 0 0 0 1.91 1.59 5.87 5.87 0 0 0 2.63.57 7.52 7.52 0 0 0 3.23-.76 11.68 11.68 0 0 0 2.93-2l.26 1.66a11 11 0 0 1 -2.91 1.88 8.69 8.69 0 0 1 -3.61.76 7.81 7.81 0 0 1 -3.19-.64 6.87 6.87 0 0 1 -2.47-1.83 8.5 8.5 0 0 1 -1.59-2.91 12.32 12.32 0 0 1 -.57-3.87 12.18 12.18 0 0 1 .57-3.83 8.74 8.74 0 0 1 1.6-2.95 6.88 6.88 0 0 1 5.4-2.49 6.15 6.15 0 0 1 3 .7 6.24 6.24 0 0 1 2.13 1.91 8.63 8.63 0 0 1 1.26 2.81 13.71 13.71 0 0 1 .42 3.46zm-2.27-3.93a6.71 6.71 0 0 0 -1-2 4.56 4.56 0 0 0 -1.51-1.36 4.19 4.19 0 0 0 -2.02-.48 4.79 4.79 0 0 0 -3.95 1.76 8.54 8.54 0 0 0 -1.72 4.55h10.58a9.47 9.47 0 0 0 -.38-2.47z"/><path d="m81 30.67a8.4 8.4 0 0 0 -1.87 1.08 9.15 9.15 0 0 0 -1.55 1.49 9.39 9.39 0 0 0 -1.14 1.76v11.64h-1.78v-17.75h1.17l.57 3.7a16 16 0 0 1 1.17-1.47 9.49 9.49 0 0 1 1.43-1.3 7.27 7.27 0 0 1 1.74-.94 5.72 5.72 0 0 1 2-.36l.3 1.66a6.68 6.68 0 0 0 -2.04.49z"/><path d="m95.92 46.85a12.51 12.51 0 0 1 -1.66.09 10.5 10.5 0 0 1 -2.46-.26 4.73 4.73 0 0 1 -1.89-.91 4.19 4.19 0 0 1 -1.23-1.7 6.86 6.86 0 0 1 -.43-2.6v-9.37h-2.56v-3.7h2.57v-5.77l4.46-.68v6.45h3.74l.54 3.7h-4.29v8.61a2.37 2.37 0 0 0 .55 1.68 2.48 2.48 0 0 0 1.87.59 5.74 5.74 0 0 0 1.44-.15l.57 3.81q-.53.12-1.22.21z"/><path d="m107.33 33.69a8.39 8.39 0 0 0 -2.64 2.49v10.46h-4.53v-18.24h3.84l.57 3.66a10.1 10.1 0 0 1 2.3-2.76 5.84 5.84 0 0 1 3.56-1.3l.72 4.49a8.29 8.29 0 0 0 -3.82 1.2z"/><path d="m123.57 46.64-.38-2.38a10 10 0 0 1 -2.57 2 7.32 7.32 0 0 1 -3.51.79 5.24 5.24 0 0 1 -3.76-1.34 4.87 4.87 0 0 1 -1.41-3.71 5.33 5.33 0 0 1 2.72-5q2.72-1.6 8.27-2.13v-.53a2.48 2.48 0 0 0 -.81-2.1 3.75 3.75 0 0 0 -2.32-.62 11.66 11.66 0 0 0 -3.1.42 22.09 22.09 0 0 0 -3 1.06l-.57-3.62a23.27 23.27 0 0 1 3.32-1.06 16.93 16.93 0 0 1 3.95-.42 8.35 8.35 0 0 1 5.31 1.42q1.76 1.42 1.76 4.7v12.5h-3.89zm-.64-9.1a16.71 16.71 0 0 0 -3.23.64 7.47 7.47 0 0 0 -2 .93 2.94 2.94 0 0 0 -1 1.11 2.9 2.9 0 0 0 -.28 1.25 2 2 0 0 0 .58 1.53 2.27 2.27 0 0 0 1.64.57 5.19 5.19 0 0 0 2.25-.51 7.28 7.28 0 0 0 2-1.45v-4.07z"/><path d="m136.75 22.77a2.38 2.38 0 0 1 -.79 1.85 2.71 2.71 0 0 1 -1.89.72 2.77 2.77 0 0 1 -1.93-.72 2.39 2.39 0 0 1 -.79-1.85 2.49 2.49 0 0 1 .79-1.91 2.73 2.73 0 0 1 1.93-.74 2.68 2.68 0 0 1 1.89.74 2.48 2.48 0 0 1 .79 1.91zm-5 23.87v-18.24h4.53v18.24z"/><path d="m140.9 46.64v-26.55l4.53-.72v27.27z"/></g><path d="m-29.345467 29.341196c-2.055156.574559-4.154508 1.016527-6.209662 1.657381-4.267886-3.851227-9.642887-6.256444-15.358405-6.87261 8.437481-6.063626 18.55867-9.339492 28.94894-9.369734l-3.557847 3.270568s15.137422-.530362 18.9383501-5.745591c-.099765.540301-.2629465 1.066939-.4861624 1.568989-1.0559807 3.06398-2.9650027 5.762678-5.5025097 7.778645-2.390105 1.840904-5.032009 3.329302-7.844941 4.419686-2.778126 1.209116-5.626625 2.24963-8.529993 3.115879h-.39777m23.7337076-.508265c-9.6421336-.399236-19.2803436.879377-28.4848726 3.778832 1.93766 2.017998 3.554859 4.320827 4.795362 6.828414 7.668153-4.242898 18.209103-9.679111 23.6674122-10.430459m-22.6287872 12.596106c.90364 2.318155 1.483649 4.749736 1.723675 7.226184l13.259058-13.678926z" fill="#f99d1e" stroke-width="2.209843"/></g></svg>